<svg width="48" height="46" viewBox="0 0 48 46" fill="none" xmlns="http://www.w3.org/2000/svg">
<ellipse cx="24" cy="23" rx="24" ry="23" fill="#D9D9D9"/>
<path d="M30.1396 13.1593L24.5396 11.0948C24.369 11.0322 24.1861 11 24.0015 11C23.8168 11 23.6339 11.0322 23.4633 11.0948L17.8633 13.1593C17.3412 13.3503 17 13.8019 17 14.3025C17 19.4249 20.3396 22.9655 23.4604 24.1164C23.8046 24.2429 24.1925 24.2429 24.5367 24.1164C27.0363 23.1951 31 20.0133 31 14.3025C31 13.8019 30.6587 13.3503 30.1396 13.1593ZM24.0029 22.5165L24 12.6845L29.1304 14.576C29.0342 18.483 26.7358 21.3139 24.0029 22.5165Z" fill="#5B9386"/>
<path d="M37.5356 30.3573C37.0234 29.8853 36.2248 29.9162 35.6866 30.3573L31.6762 33.6169C31.1858 34.0182 30.5738 34.2344 29.9401 34.2344H24.8056C24.4236 34.2344 24.1111 33.9168 24.1111 33.5286C24.1111 33.1405 24.4236 32.8229 24.8056 32.8229H28.204C28.8941 32.8229 29.5365 32.3421 29.6493 31.6496C29.7925 30.7675 29.1241 30 28.2778 30H21.3333C20.1615 30 19.0286 30.4102 18.1172 31.16L16.099 32.8229H13.6944C13.3125 32.8229 13 33.1405 13 33.5286V37.763C13 38.1512 13.3125 38.4688 13.6944 38.4688H29.1806C29.8099 38.4688 30.4219 38.2526 30.9167 37.8512L37.4792 32.5142C38.1389 31.9805 38.191 30.9571 37.5356 30.3573Z" fill="#5B9386"/>
</svg>
