<svg width="48" height="46" viewBox="0 0 48 46" fill="none" xmlns="http://www.w3.org/2000/svg">
<ellipse cx="24" cy="23" rx="24" ry="23" fill="#D9D9D9"/>
<path d="M35.9998 10C33.4714 10.1767 15.7087 11.8955 14.467 24.2717C14.3162 25.5946 14.2307 26.9234 14.1746 28.2533L22.9084 19.3864C23.2136 19.0763 23.7092 19.0763 24.0144 19.3864C24.3196 19.6966 24.3196 20.1992 24.0144 20.5094L11.3435 33.3733C10.8855 33.8382 10.8855 34.5925 11.3435 35.0574C11.8015 35.5224 12.5442 35.5224 13.0027 35.0574L15.7922 32.2255C17.8474 32.2186 19.9011 32.1 21.9426 31.8603C24.554 31.5904 26.6799 30.5468 28.4163 29.0547H23.4871L30.6545 26.6292C31.2039 25.8903 31.698 25.1053 32.1414 24.291H28.1794L33.3816 21.6507C35.428 16.5927 35.9114 11.3031 35.9998 10Z" fill="#5B9386"/>
</svg>
