<svg width="48" height="46" viewBox="0 0 48 46" fill="none" xmlns="http://www.w3.org/2000/svg">
<ellipse cx="24" cy="23" rx="24" ry="23" fill="#D9D9D9"/>
<path d="M20 25.4366C19.5859 24.637 18.8008 24.4725 18.25 25.0737C17.6992 25.6748 17.5859 26.8147 18 27.6143L19.4883 30.4952C19.6758 30.8581 19.6484 31.3628 19.4297 31.6804L18.9297 32.4063C18.668 32.7863 18.2422 32.7579 18.0078 32.3439L14.5 26.2306V17.8147C14.5 16.811 13.9414 16 13.25 16C12.5586 16 12 16.811 12 17.8147V30.2003C12 30.8184 12.1445 31.4196 12.4102 31.9016L16.4766 39.5178C16.6719 39.8864 16.8047 40.3061 16.8828 40.7484C16.9531 41.1397 17.1992 41.4062 17.4805 41.4062H22.625C22.9688 41.4062 23.25 40.9979 23.25 40.4989V34.1473C23.25 32.5764 22.8984 31.0509 22.25 29.792L20 25.4366ZM35.75 16C35.0586 16 34.5 16.811 34.5 17.8147V26.2306L30.9922 32.3439C30.7578 32.7522 30.3281 32.7806 30.0703 32.4063L29.5703 31.6804C29.3516 31.3628 29.3242 30.8581 29.5117 30.4952L31 27.6143C31.4141 26.8147 31.3008 25.6748 30.75 25.0737C30.1992 24.4725 29.4141 24.637 29 25.4366L26.75 29.792C26.1016 31.0509 25.75 32.5764 25.75 34.1473V40.4989C25.75 40.9979 26.0312 41.4062 26.375 41.4062H31.5195C31.7969 41.4062 32.0469 41.1397 32.1172 40.7484C32.1953 40.3061 32.3281 39.8864 32.5234 39.5178L36.5898 31.9016C36.8555 31.4196 37 30.8184 37 30.2003V17.8147C37 16.811 36.4414 16 35.75 16Z" fill="#5B9386"/>
<path d="M28.8352 12.6949C27.5509 11.6355 25.6408 11.8261 24.4619 13.0034L24.0002 13.4639L23.5385 13.0034C22.3619 11.8261 20.4495 11.6355 19.1651 12.6949C17.6933 13.9107 17.6159 16.0929 18.9331 17.4108L23.4682 21.943C23.7611 22.2357 24.2369 22.2357 24.5298 21.943L29.0649 17.4108C30.3844 16.0929 30.3071 13.9107 28.8352 12.6949Z" fill="#5B9386"/>
</svg>
