<svg width="80" height="12" viewBox="0 0 80 12" fill="none" xmlns="http://www.w3.org/2000/svg">
<path d="M6.67188 3.4929C6.61884 3.02225 6.40009 2.65767 6.01562 2.39915C5.63116 2.13731 5.14725 2.00639 4.56392 2.00639C4.14631 2.00639 3.78504 2.07268 3.48011 2.20526C3.17519 2.33452 2.93821 2.51349 2.76918 2.74219C2.60346 2.96757 2.5206 3.22443 2.5206 3.51278C2.5206 3.75473 2.57694 3.96354 2.68963 4.1392C2.80563 4.31487 2.95644 4.46236 3.14205 4.58168C3.33097 4.69768 3.53314 4.79545 3.74858 4.875C3.96402 4.95123 4.17116 5.0142 4.37003 5.06392L5.36435 5.32244C5.68916 5.40199 6.02225 5.50971 6.36364 5.6456C6.70502 5.78149 7.02154 5.96046 7.31321 6.18253C7.60488 6.40459 7.8402 6.67969 8.01918 7.00781C8.20147 7.33594 8.29261 7.72869 8.29261 8.18608C8.29261 8.76278 8.14347 9.27486 7.84517 9.7223C7.55019 10.1697 7.12098 10.5227 6.55753 10.7812C5.9974 11.0398 5.3196 11.169 4.52415 11.169C3.76184 11.169 3.10227 11.0481 2.54545 10.8061C1.98864 10.5642 1.55279 10.2211 1.23793 9.77699C0.923059 9.32955 0.749053 8.79924 0.715909 8.18608H2.2571C2.28693 8.55398 2.40625 8.86056 2.61506 9.10582C2.82718 9.34777 3.0973 9.52841 3.42543 9.64773C3.75687 9.76373 4.11979 9.82173 4.5142 9.82173C4.94839 9.82173 5.33452 9.75379 5.67259 9.6179C6.01397 9.47869 6.28243 9.28646 6.47798 9.04119C6.67353 8.79261 6.77131 8.5026 6.77131 8.17116C6.77131 7.86955 6.68513 7.62263 6.51278 7.4304C6.34375 7.23816 6.1134 7.07907 5.82173 6.95312C5.53338 6.82718 5.20691 6.71615 4.84233 6.62003L3.6392 6.2919C2.82386 6.06984 2.17756 5.74337 1.70028 5.3125C1.22633 4.88163 0.989347 4.31155 0.989347 3.60227C0.989347 3.01562 1.14844 2.50355 1.46662 2.06605C1.7848 1.62855 2.21567 1.28883 2.75923 1.04688C3.30279 0.80161 3.91596 0.678977 4.59872 0.678977C5.28812 0.678977 5.89631 0.799952 6.4233 1.0419C6.9536 1.28385 7.37121 1.61695 7.67614 2.04119C7.98106 2.46212 8.14015 2.94602 8.15341 3.4929H6.67188ZM13.3002 11.1541C12.5479 11.1541 11.8999 10.9934 11.3564 10.6719C10.8161 10.3471 10.3985 9.89134 10.1035 9.30469C9.81185 8.71473 9.66602 8.02367 9.66602 7.23153C9.66602 6.44934 9.81185 5.75994 10.1035 5.16335C10.3985 4.56676 10.8095 4.10109 11.3365 3.76633C11.8668 3.43158 12.4866 3.2642 13.1958 3.2642C13.6267 3.2642 14.0443 3.33546 14.4487 3.47798C14.853 3.6205 15.216 3.84422 15.5375 4.14915C15.859 4.45407 16.1125 4.85014 16.2981 5.33736C16.4837 5.82126 16.5765 6.40956 16.5765 7.10227V7.62926H10.5062V6.51562H15.1199C15.1199 6.12453 15.0403 5.77817 14.8812 5.47656C14.7221 5.17164 14.4984 4.93134 14.21 4.75568C13.925 4.58002 13.5903 4.49219 13.2058 4.49219C12.7882 4.49219 12.4236 4.59493 12.112 4.80043C11.8038 5.0026 11.5652 5.26776 11.3961 5.59588C11.2304 5.92069 11.1475 6.27367 11.1475 6.65483V7.52486C11.1475 8.03527 11.237 8.46946 11.416 8.82741C11.5983 9.18537 11.8519 9.45881 12.1767 9.64773C12.5015 9.83333 12.881 9.92614 13.3152 9.92614C13.5969 9.92614 13.8538 9.88636 14.0858 9.80682C14.3178 9.72396 14.5183 9.60133 14.6873 9.43892C14.8564 9.27652 14.9856 9.07599 15.0751 8.83736L16.4821 9.09091C16.3694 9.50521 16.1672 9.86813 15.8755 10.1797C15.5872 10.4879 15.2243 10.7282 14.7868 10.9006C14.3526 11.0696 13.8571 11.1541 13.3002 11.1541ZM20.4482 11.169C19.9643 11.169 19.5268 11.0795 19.1357 10.9006C18.7446 10.7183 18.4347 10.4548 18.206 10.1101C17.9806 9.76539 17.8679 9.3428 17.8679 8.84233C17.8679 8.41146 17.9508 8.05682 18.1165 7.77841C18.2822 7.5 18.5059 7.27959 18.7876 7.11719C19.0694 6.95478 19.3842 6.83215 19.7322 6.74929C20.0803 6.66643 20.4349 6.60346 20.7962 6.56037C21.2536 6.50734 21.6248 6.46425 21.9098 6.43111C22.1948 6.39465 22.402 6.33665 22.5312 6.2571C22.6605 6.17756 22.7251 6.0483 22.7251 5.86932V5.83452C22.7251 5.40033 22.6025 5.06392 22.3572 4.82528C22.1153 4.58665 21.754 4.46733 21.2734 4.46733C20.773 4.46733 20.3786 4.57836 20.0902 4.80043C19.8052 5.01918 19.608 5.26278 19.4986 5.53125L18.1016 5.21307C18.2673 4.74905 18.5092 4.37453 18.8274 4.08949C19.1489 3.80114 19.5185 3.59233 19.9361 3.46307C20.3537 3.33049 20.7929 3.2642 21.2536 3.2642C21.5585 3.2642 21.8816 3.30066 22.223 3.37358C22.5677 3.44318 22.8892 3.57244 23.1875 3.76136C23.4891 3.95028 23.736 4.22041 23.9283 4.57173C24.1205 4.91974 24.2166 5.37216 24.2166 5.92898V11H22.7649V9.95597H22.7053C22.6091 10.1482 22.465 10.3371 22.2727 10.5227C22.0805 10.7083 21.8336 10.8625 21.532 10.9851C21.2304 11.1077 20.8691 11.169 20.4482 11.169ZM20.7713 9.97585C21.1823 9.97585 21.5336 9.89465 21.8253 9.73224C22.1203 9.56984 22.344 9.35772 22.4964 9.09588C22.6522 8.83073 22.7301 8.54735 22.7301 8.24574V7.26136C22.6771 7.31439 22.5743 7.36411 22.4219 7.41051C22.2727 7.4536 22.102 7.49171 21.9098 7.52486C21.7176 7.55469 21.5303 7.58286 21.348 7.60938C21.1657 7.63258 21.0133 7.65246 20.8906 7.66903C20.6023 7.70549 20.3388 7.76681 20.1001 7.85298C19.8648 7.93916 19.6759 8.06345 19.5334 8.22585C19.3942 8.38494 19.3246 8.59706 19.3246 8.86222C19.3246 9.23011 19.4605 9.50852 19.7322 9.69744C20.004 9.88305 20.3504 9.97585 20.7713 9.97585ZM26.1966 11V3.36364H27.6333V4.5767H27.7129C27.8521 4.16572 28.0974 3.84257 28.4487 3.60724C28.8033 3.36861 29.2044 3.24929 29.6518 3.24929C29.7446 3.24929 29.854 3.2526 29.9799 3.25923C30.1092 3.26586 30.2103 3.27415 30.2832 3.28409V4.70597C30.2235 4.68939 30.1175 4.67116 29.965 4.65128C29.8126 4.62808 29.6601 4.61648 29.5076 4.61648C29.1563 4.61648 28.8431 4.69105 28.568 4.8402C28.2962 4.98603 28.0808 5.18987 27.9217 5.4517C27.7626 5.71023 27.6831 6.00521 27.6831 6.33665V11H26.1966ZM34.5128 11.1541C33.7737 11.1541 33.1373 10.9867 32.6037 10.652C32.0734 10.3139 31.6657 9.84825 31.3807 9.25497C31.0956 8.66169 30.9531 7.98224 30.9531 7.21662C30.9531 6.44105 31.099 5.75663 31.3906 5.16335C31.6823 4.56676 32.0933 4.10109 32.6236 3.76633C33.1539 3.43158 33.7786 3.2642 34.4979 3.2642C35.0779 3.2642 35.5949 3.37192 36.049 3.58736C36.5031 3.79948 36.8693 4.09777 37.1477 4.48224C37.4295 4.86671 37.5968 5.31581 37.6499 5.82955H36.2031C36.1236 5.47159 35.9413 5.16335 35.6562 4.90483C35.3745 4.64631 34.9967 4.51705 34.5227 4.51705C34.1084 4.51705 33.7455 4.62642 33.4339 4.84517C33.1257 5.06061 32.8854 5.36884 32.7131 5.76989C32.5407 6.16761 32.4545 6.63826 32.4545 7.18182C32.4545 7.73864 32.5391 8.21922 32.7081 8.62358C32.8771 9.02794 33.1158 9.34115 33.424 9.56321C33.7356 9.78527 34.1018 9.89631 34.5227 9.89631C34.8045 9.89631 35.0597 9.84493 35.2884 9.74219C35.5204 9.63613 35.7143 9.48532 35.87 9.28977C36.0291 9.09422 36.1402 8.8589 36.2031 8.58381H37.6499C37.5968 9.07765 37.4361 9.51847 37.1676 9.90625C36.8991 10.294 36.5395 10.599 36.0888 10.821C35.6413 11.0431 35.116 11.1541 34.5128 11.1541ZM40.726 6.46591V11H39.2395V0.818182H40.7061V4.60653H40.8006C40.9796 4.19555 41.253 3.86908 41.6209 3.62713C41.9888 3.38518 42.4694 3.2642 43.0627 3.2642C43.5864 3.2642 44.0437 3.37192 44.4348 3.58736C44.8292 3.80279 45.1342 4.12429 45.3496 4.55185C45.5684 4.97609 45.6777 5.50639 45.6777 6.14276V11H44.1912V6.32173C44.1912 5.7616 44.0471 5.32741 43.7587 5.01918C43.4703 4.70762 43.0693 4.55185 42.5556 4.55185C42.2042 4.55185 41.8894 4.62642 41.611 4.77557C41.3359 4.92472 41.1188 5.14347 40.9597 5.43182C40.8039 5.71686 40.726 6.06155 40.726 6.46591ZM52.853 6.46591V11H51.3665V0.818182H52.8331V4.60653H52.9276C53.1065 4.19555 53.38 3.86908 53.7479 3.62713C54.1158 3.38518 54.5964 3.2642 55.1896 3.2642C55.7133 3.2642 56.1707 3.37192 56.5618 3.58736C56.9562 3.80279 57.2611 4.12429 57.4766 4.55185C57.6953 4.97609 57.8047 5.50639 57.8047 6.14276V11H56.3182V6.32173C56.3182 5.7616 56.174 5.32741 55.8857 5.01918C55.5973 4.70762 55.1963 4.55185 54.6825 4.55185C54.3312 4.55185 54.0163 4.62642 53.7379 4.77557C53.4628 4.92472 53.2457 5.14347 53.0866 5.43182C52.9309 5.71686 52.853 6.06155 52.853 6.46591ZM63.0795 11.1541C62.3272 11.1541 61.6792 10.9934 61.1357 10.6719C60.5954 10.3471 60.1778 9.89134 59.8828 9.30469C59.5911 8.71473 59.4453 8.02367 59.4453 7.23153C59.4453 6.44934 59.5911 5.75994 59.8828 5.16335C60.1778 4.56676 60.5888 4.10109 61.1158 3.76633C61.6461 3.43158 62.2659 3.2642 62.9751 3.2642C63.406 3.2642 63.8236 3.33546 64.228 3.47798C64.6323 3.6205 64.9953 3.84422 65.3168 4.14915C65.6383 4.45407 65.8918 4.85014 66.0774 5.33736C66.263 5.82126 66.3558 6.40956 66.3558 7.10227V7.62926H60.2855V6.51562H64.8991C64.8991 6.12453 64.8196 5.77817 64.6605 5.47656C64.5014 5.17164 64.2777 4.93134 63.9893 4.75568C63.7043 4.58002 63.3696 4.49219 62.9851 4.49219C62.5675 4.49219 62.2029 4.59493 61.8913 4.80043C61.5831 5.0026 61.3445 5.26776 61.1754 5.59588C61.0097 5.92069 60.9268 6.27367 60.9268 6.65483V7.52486C60.9268 8.03527 61.0163 8.46946 61.1953 8.82741C61.3776 9.18537 61.6312 9.45881 61.956 9.64773C62.2808 9.83333 62.6603 9.92614 63.0945 9.92614C63.3762 9.92614 63.633 9.88636 63.8651 9.80682C64.0971 9.72396 64.2976 9.60133 64.4666 9.43892C64.6357 9.27652 64.7649 9.07599 64.8544 8.83736L66.2614 9.09091C66.1487 9.50521 65.9465 9.86813 65.6548 10.1797C65.3665 10.4879 65.0036 10.7282 64.5661 10.9006C64.1319 11.0696 63.6364 11.1541 63.0795 11.1541ZM68.0051 11V3.36364H69.4419V4.5767H69.5215C69.6607 4.16572 69.906 3.84257 70.2573 3.60724C70.6119 3.36861 71.013 3.24929 71.4604 3.24929C71.5532 3.24929 71.6626 3.2526 71.7885 3.25923C71.9178 3.26586 72.0189 3.27415 72.0918 3.28409V4.70597C72.0321 4.68939 71.9261 4.67116 71.7736 4.65128C71.6212 4.62808 71.4687 4.61648 71.3162 4.61648C70.9649 4.61648 70.6517 4.69105 70.3766 4.8402C70.1048 4.98603 69.8894 5.18987 69.7303 5.4517C69.5712 5.71023 69.4917 6.00521 69.4917 6.33665V11H68.0051ZM76.396 11.1541C75.6436 11.1541 74.9956 10.9934 74.4521 10.6719C73.9118 10.3471 73.4942 9.89134 73.1992 9.30469C72.9076 8.71473 72.7617 8.02367 72.7617 7.23153C72.7617 6.44934 72.9076 5.75994 73.1992 5.16335C73.4942 4.56676 73.9052 4.10109 74.4322 3.76633C74.9625 3.43158 75.5823 3.2642 76.2915 3.2642C76.7224 3.2642 77.14 3.33546 77.5444 3.47798C77.9487 3.6205 78.3117 3.84422 78.6332 4.14915C78.9547 4.45407 79.2082 4.85014 79.3938 5.33736C79.5794 5.82126 79.6722 6.40956 79.6722 7.10227V7.62926H73.6019V6.51562H78.2156C78.2156 6.12453 78.136 5.77817 77.9769 5.47656C77.8178 5.17164 77.5941 4.93134 77.3058 4.75568C77.0207 4.58002 76.686 4.49219 76.3015 4.49219C75.8839 4.49219 75.5193 4.59493 75.2077 4.80043C74.8995 5.0026 74.6609 5.26776 74.4918 5.59588C74.3261 5.92069 74.2433 6.27367 74.2433 6.65483V7.52486C74.2433 8.03527 74.3327 8.46946 74.5117 8.82741C74.694 9.18537 74.9476 9.45881 75.2724 9.64773C75.5972 9.83333 75.9767 9.92614 76.4109 9.92614C76.6926 9.92614 76.9495 9.88636 77.1815 9.80682C77.4135 9.72396 77.614 9.60133 77.783 9.43892C77.9521 9.27652 78.0813 9.07599 78.1708 8.83736L79.5778 9.09091C79.4651 9.50521 79.2629 9.86813 78.9712 10.1797C78.6829 10.4879 78.32 10.7282 77.8825 10.9006C77.4483 11.0696 76.9528 11.1541 76.396 11.1541Z" fill="black"/>
</svg>
