<svg width="25" height="26" viewBox="0 0 25 26" fill="none" xmlns="http://www.w3.org/2000/svg">
<path d="M12.1094 0.584991C5.41992 0.584991 0 6.09299 0 12.8911C0 19.6893 5.41992 25.1973 12.1094 25.1973C18.7988 25.1973 24.2188 19.6893 24.2188 12.8911C24.2188 6.09299 18.7988 0.584991 12.1094 0.584991ZM12.1094 5.34866C14.4824 5.34866 16.4062 7.30375 16.4062 9.71536C16.4062 12.127 14.4824 14.0821 12.1094 14.0821C9.73633 14.0821 7.8125 12.127 7.8125 9.71536C7.8125 7.30375 9.73633 5.34866 12.1094 5.34866ZM12.1094 22.4185C9.24316 22.4185 6.6748 21.0986 4.95605 19.0343C5.87402 17.2777 7.6709 16.0669 9.76562 16.0669C9.88281 16.0669 10 16.0868 10.1123 16.1215C10.7471 16.3299 11.4111 16.4639 12.1094 16.4639C12.8076 16.4639 13.4766 16.3299 14.1064 16.1215C14.2188 16.0868 14.3359 16.0669 14.4531 16.0669C16.5479 16.0669 18.3447 17.2777 19.2627 19.0343C17.5439 21.0986 14.9756 22.4185 12.1094 22.4185Z" fill="#087C60"/>
</svg>
