<svg width="25" height="24" viewBox="0 0 25 24" fill="none" xmlns="http://www.w3.org/2000/svg">
<path d="M22.9219 13.8756L24.9737 4.70111C25.1218 4.0387 24.6263 3.40791 23.9579 3.40791H6.91007L6.51224 1.43143C6.41311 0.938782 5.98655 0.584991 5.49171 0.584991H1.04167C0.466363 0.584991 0 1.05893 0 1.64359V2.34931C0 2.93397 0.466363 3.40791 1.04167 3.40791H4.07478L7.12374 18.5562C6.39431 18.9825 5.90278 19.7818 5.90278 20.6983C5.90278 22.0624 6.99097 23.1683 8.33333 23.1683C9.6757 23.1683 10.7639 22.0624 10.7639 20.6983C10.7639 20.0069 10.4841 19.3823 10.0337 18.934H19.1329C18.6826 19.3823 18.4028 20.0069 18.4028 20.6983C18.4028 22.0624 19.491 23.1683 20.8333 23.1683C22.1757 23.1683 23.2639 22.0624 23.2639 20.6983C23.2639 19.7203 22.7045 18.8752 21.8933 18.475L22.1327 17.4042C22.2809 16.7418 21.7854 16.111 21.117 16.111H9.46688L9.18281 14.6996H21.9061C22.3925 14.6996 22.8141 14.3576 22.9219 13.8756Z" fill="#087C60"/>
</svg>
