<svg width="87" height="12" viewBox="0 0 87 12" fill="none" xmlns="http://www.w3.org/2000/svg">
<path d="M0.118608 11V0.818182H6.50213V2.14062H1.65483V5.2429H6.16903V6.56037H1.65483V9.67756H6.56179V11H0.118608ZM8.55415 0.818182H10.4185L13.66 8.73295H13.7793L17.0208 0.818182H18.8851V11H17.4235V3.6321H17.329L14.3262 10.9851H13.1131L10.1103 3.62713H10.0158V11H8.55415V0.818182ZM28.5288 11V0.818182H34.8427V2.14062H30.065V5.2429H34.3903V6.56037H30.065V11H28.5288ZM40.9714 7.8331V3.36364H42.4629V11H41.0012V9.67756H40.9217C40.746 10.0852 40.4643 10.425 40.0765 10.6967C39.6921 10.9652 39.2131 11.0994 38.6397 11.0994C38.1492 11.0994 37.715 10.9917 37.3372 10.7763C36.9627 10.5575 36.6677 10.2344 36.4522 9.80682C36.2401 9.37926 36.1341 8.85062 36.1341 8.22088V3.36364H37.6206V8.0419C37.6206 8.56226 37.7647 8.97656 38.0531 9.2848C38.3414 9.59304 38.716 9.74716 39.1767 9.74716C39.4551 9.74716 39.7318 9.67756 40.0069 9.53835C40.2853 9.39915 40.5157 9.18868 40.698 8.90696C40.8836 8.62524 40.9747 8.26728 40.9714 7.8331ZM44.4602 11V3.36364H45.897V4.5767H45.9766C46.1158 4.16572 46.361 3.84257 46.7124 3.60724C47.067 3.36861 47.468 3.24929 47.9155 3.24929C48.0083 3.24929 48.1177 3.2526 48.2436 3.25923C48.3729 3.26586 48.474 3.27415 48.5469 3.28409V4.70597C48.4872 4.68939 48.3812 4.67116 48.2287 4.65128C48.0762 4.62808 47.9238 4.61648 47.7713 4.61648C47.42 4.61648 47.1068 4.69105 46.8317 4.8402C46.5599 4.98603 46.3445 5.18987 46.1854 5.4517C46.0263 5.71023 45.9467 6.00521 45.9467 6.33665V11H44.4602ZM51.3198 6.46591V11H49.8333V3.36364H51.2601V4.60653H51.3546C51.5302 4.20218 51.8053 3.87737 52.1799 3.6321C52.5577 3.38684 53.0333 3.2642 53.6067 3.2642C54.1271 3.2642 54.5828 3.37358 54.9739 3.59233C55.365 3.80777 55.6683 4.12926 55.8837 4.55682C56.0991 4.98437 56.2069 5.51302 56.2069 6.14276V11H54.7203V6.32173C54.7203 5.76823 54.5762 5.3357 54.2878 5.02415C53.9995 4.70928 53.6034 4.55185 53.0996 4.55185C52.7549 4.55185 52.4483 4.62642 52.1799 4.77557C51.9147 4.92472 51.7042 5.14347 51.5485 5.43182C51.396 5.71686 51.3198 6.06155 51.3198 6.46591ZM58.2005 11V3.36364H59.687V11H58.2005ZM58.9512 2.18537C58.6926 2.18537 58.4706 2.09919 58.285 1.92685C58.1027 1.75118 58.0115 1.54238 58.0115 1.30043C58.0115 1.05516 58.1027 0.846354 58.285 0.674005C58.4706 0.498342 58.6926 0.410511 58.9512 0.410511C59.2097 0.410511 59.4301 0.498342 59.6124 0.674005C59.798 0.846354 59.8908 1.05516 59.8908 1.30043C59.8908 1.54238 59.798 1.75118 59.6124 1.92685C59.4301 2.09919 59.2097 2.18537 58.9512 2.18537ZM65.2514 3.36364V4.55682H61.0803V3.36364H65.2514ZM62.1989 1.53409H63.6854V8.75781C63.6854 9.04616 63.7285 9.26326 63.8146 9.40909C63.9008 9.55161 64.0118 9.64938 64.1477 9.70241C64.2869 9.75213 64.4377 9.77699 64.6001 9.77699C64.7195 9.77699 64.8239 9.7687 64.9134 9.75213C65.0028 9.73556 65.0724 9.7223 65.1222 9.71236L65.3906 10.9403C65.3045 10.9735 65.1818 11.0066 65.0227 11.0398C64.8636 11.0762 64.6648 11.0961 64.4261 11.0994C64.035 11.1061 63.6705 11.0365 63.3324 10.8906C62.9943 10.7448 62.7209 10.5194 62.5121 10.2145C62.3033 9.90956 62.1989 9.52675 62.1989 9.06605V1.53409ZM71.7331 7.8331V3.36364H73.2246V11H71.763V9.67756H71.6834C71.5078 10.0852 71.226 10.425 70.8382 10.6967C70.4538 10.9652 69.9748 11.0994 69.4015 11.0994C68.9109 11.0994 68.4767 10.9917 68.0989 10.7763C67.7244 10.5575 67.4294 10.2344 67.214 9.80682C67.0018 9.37926 66.8958 8.85062 66.8958 8.22088V3.36364H68.3823V8.0419C68.3823 8.56226 68.5265 8.97656 68.8148 9.2848C69.1032 9.59304 69.4777 9.74716 69.9384 9.74716C70.2168 9.74716 70.4935 9.67756 70.7686 9.53835C71.0471 9.39915 71.2774 9.18868 71.4597 8.90696C71.6453 8.62524 71.7364 8.26728 71.7331 7.8331ZM75.2219 11V3.36364H76.6587V4.5767H76.7383C76.8775 4.16572 77.1228 3.84257 77.4741 3.60724C77.8287 3.36861 78.2298 3.24929 78.6772 3.24929C78.77 3.24929 78.8794 3.2526 79.0053 3.25923C79.1346 3.26586 79.2357 3.27415 79.3086 3.28409V4.70597C79.2489 4.68939 79.1429 4.67116 78.9904 4.65128C78.8379 4.62808 78.6855 4.61648 78.533 4.61648C78.1817 4.61648 77.8685 4.69105 77.5934 4.8402C77.3216 4.98603 77.1062 5.18987 76.9471 5.4517C76.788 5.71023 76.7085 6.00521 76.7085 6.33665V11H75.2219ZM83.6127 11.1541C82.8604 11.1541 82.2124 10.9934 81.6689 10.6719C81.1286 10.3471 80.711 9.89134 80.416 9.30469C80.1243 8.71473 79.9785 8.02367 79.9785 7.23153C79.9785 6.44934 80.1243 5.75994 80.416 5.16335C80.711 4.56676 81.122 4.10109 81.649 3.76633C82.1793 3.43158 82.7991 3.2642 83.5083 3.2642C83.9392 3.2642 84.3568 3.33546 84.7612 3.47798C85.1655 3.6205 85.5285 3.84422 85.85 4.14915C86.1715 4.45407 86.425 4.85014 86.6106 5.33736C86.7962 5.82126 86.889 6.40956 86.889 7.10227V7.62926H80.8187V6.51562H85.4324C85.4324 6.12453 85.3528 5.77817 85.1937 5.47656C85.0346 5.17164 84.8109 4.93134 84.5225 4.75568C84.2375 4.58002 83.9028 4.49219 83.5183 4.49219C83.1007 4.49219 82.7361 4.59493 82.4245 4.80043C82.1163 5.0026 81.8777 5.26776 81.7086 5.59588C81.5429 5.92069 81.46 6.27367 81.46 6.65483V7.52486C81.46 8.03527 81.5495 8.46946 81.7285 8.82741C81.9108 9.18537 82.1644 9.45881 82.4892 9.64773C82.814 9.83333 83.1935 9.92614 83.6277 9.92614C83.9094 9.92614 84.1663 9.88636 84.3983 9.80682C84.6303 9.72396 84.8308 9.60133 84.9998 9.43892C85.1689 9.27652 85.2981 9.07599 85.3876 8.83736L86.7946 9.09091C86.6819 9.50521 86.4797 9.86813 86.188 10.1797C85.8997 10.4879 85.5368 10.7282 85.0993 10.9006C84.6651 11.0696 84.1696 11.1541 83.6127 11.1541Z" fill="#087C60"/>
</svg>
