<svg width="22" height="23" viewBox="0 0 22 23" fill="none" xmlns="http://www.w3.org/2000/svg">
<path d="M21.0938 19.6397H0.78125C0.57405 19.6397 0.375336 19.7233 0.228823 19.8722C0.08231 20.0211 0 20.2231 0 20.4336L0 22.0215C0 22.2321 0.08231 22.434 0.228823 22.5829C0.375336 22.7318 0.57405 22.8155 0.78125 22.8155H21.0938C21.301 22.8155 21.4997 22.7318 21.6462 22.5829C21.7927 22.434 21.875 22.2321 21.875 22.0215V20.4336C21.875 20.2231 21.7927 20.0211 21.6462 19.8722C21.4997 19.7233 21.301 19.6397 21.0938 19.6397ZM21.0938 13.2881H0.78125C0.57405 13.2881 0.375336 13.3718 0.228823 13.5207C0.08231 13.6696 0 13.8715 0 14.0821L0 15.67C0 15.8805 0.08231 16.0825 0.228823 16.2314C0.375336 16.3803 0.57405 16.4639 0.78125 16.4639H21.0938C21.301 16.4639 21.4997 16.3803 21.6462 16.2314C21.7927 16.0825 21.875 15.8805 21.875 15.67V14.0821C21.875 13.8715 21.7927 13.6696 21.6462 13.5207C21.4997 13.3718 21.301 13.2881 21.0938 13.2881ZM21.0938 6.93655H0.78125C0.57405 6.93655 0.375336 7.0202 0.228823 7.1691C0.08231 7.31799 0 7.51993 0 7.7305L0 9.31839C0 9.52896 0.08231 9.7309 0.228823 9.87979C0.375336 10.0287 0.57405 10.1123 0.78125 10.1123H21.0938C21.301 10.1123 21.4997 10.0287 21.6462 9.87979C21.7927 9.7309 21.875 9.52896 21.875 9.31839V7.7305C21.875 7.51993 21.7927 7.31799 21.6462 7.1691C21.4997 7.0202 21.301 6.93655 21.0938 6.93655ZM21.0938 0.584991H0.78125C0.57405 0.584991 0.375336 0.668639 0.228823 0.817533C0.08231 0.966426 0 1.16837 0 1.37894L0 2.96683C0 3.17739 0.08231 3.37934 0.228823 3.52823C0.375336 3.67712 0.57405 3.76077 0.78125 3.76077H21.0938C21.301 3.76077 21.4997 3.67712 21.6462 3.52823C21.7927 3.37934 21.875 3.17739 21.875 2.96683V1.37894C21.875 1.16837 21.7927 0.966426 21.6462 0.817533C21.4997 0.668639 21.301 0.584991 21.0938 0.584991Z" fill="#087C60"/>
</svg>
